<svg width="24" height="24" viewBox="0 0 24 24" fill="none" xmlns="http://www.w3.org/2000/svg">
<path d="M13.9481 6.375H23.1429C23.6163 6.375 24 6.03923 24 5.625V3.75C24 3.33577 23.6163 3 23.1429 3H13.9481C13.4746 3 13.0909 3.33577 13.0909 3.75V5.625C13.0909 6.03923 13.4746 6.375 13.9481 6.375ZM0.857143 13.875H23.1429C23.6163 13.875 24 13.5392 24 13.125V11.25C24 10.8358 23.6163 10.5 23.1429 10.5H0.857143C0.383732 10.5 0 10.8358 0 11.25V13.125C0 13.5392 0.383732 13.875 0.857143 13.875ZM7.4026 21.375H23.1429C23.6163 21.375 24 21.0392 24 20.625V18.75C24 18.3358 23.6163 18 23.1429 18H7.4026C6.92919 18 6.54545 18.3358 6.54545 18.75V20.625C6.54545 21.0392 6.92919 21.375 7.4026 21.375Z" fill="black"/>
</svg>
