<svg width="78" height="24" viewBox="0 0 78 24" fill="none" xmlns="http://www.w3.org/2000/svg">
<path d="M10.7941 0.844279L15.676 3.11508L5.42102 12.8442L0.539152 10.5734L10.7941 0.844279Z" fill="black"/>
<path d="M15.676 3.11508C14.7321 4.01062 12.874 4.22826 11.5259 3.6012C10.1778 2.97413 9.85018 1.73982 10.7941 0.844279C11.7381 -0.0512611 13.5961 -0.268904 14.9442 0.35816C16.2923 0.985224 16.6199 2.21954 15.676 3.11508Z" fill="black"/>
<path d="M5.42102 12.8442C4.47708 13.7397 2.61902 13.9574 1.27093 13.3303C-0.0771654 12.7032 -0.404792 11.4689 0.539152 10.5734C1.4831 9.67785 3.34116 9.46021 4.68925 10.0873C6.03734 10.7143 6.36497 11.9487 5.42102 12.8442Z" fill="black"/>
<path d="M6.79403 8.05986L11.7348 5.846L16.7337 10.7693L11.7929 12.9831L6.79403 8.05986Z" fill="black"/>
<path d="M11.7348 5.846C12.6551 6.75235 12.2951 7.98268 10.9307 8.59402C9.56636 9.20535 7.7143 8.9662 6.79403 8.05986C5.87375 7.15351 6.23376 5.92318 7.59812 5.31184C8.96248 4.7005 10.8145 4.93965 11.7348 5.846Z" fill="black"/>
<path d="M16.7337 10.7693C17.654 11.6756 17.294 12.9059 15.9296 13.5173C14.5653 14.1286 12.7132 13.8895 11.7929 12.9831C10.8727 12.0768 11.2327 10.8464 12.597 10.2351C13.9614 9.62376 15.8134 9.86292 16.7337 10.7693Z" fill="black"/>
<path d="M18.0403 1.96494H24V22.0205H18.0403V1.96494Z" fill="black"/>
<path d="M24 1.96494C24 2.91434 22.6659 3.68399 21.0202 3.68399C19.3745 3.68399 18.0403 2.91434 18.0403 1.96494C18.0403 1.01553 19.3745 0.245891 21.0202 0.245891C22.6659 0.245891 24 1.01553 24 1.96494Z" fill="black"/>
<path d="M24 22.0205C24 23.1137 22.6659 24 21.0202 24C19.3745 24 18.0403 23.1137 18.0403 22.0205C18.0403 20.9272 19.3745 20.041 21.0202 20.041C22.6659 20.041 24 20.9272 24 22.0205Z" fill="black"/>
<path d="M27 2.57143H32.5385V11.1429H27V2.57143Z" fill="black"/>
<path d="M33.4615 7.71429H39V18.8571H33.4615V7.71429Z" fill="black"/>
<path d="M39 18.4286C39 19.6068 38.5977 20.7548 37.851 21.7074C37.1042 22.66 36.0514 23.3683 34.8439 23.7304C33.6364 24.0925 32.3364 24.0898 31.1307 23.7227C29.9249 23.3556 28.8756 22.643 28.1334 21.6873L32.6136 18.6873C32.6725 18.7632 32.7558 18.8198 32.8516 18.8489C32.9473 18.8781 33.0505 18.8783 33.1464 18.8495C33.2423 18.8208 33.3259 18.7645 33.3852 18.6889C33.4445 18.6133 33.4764 18.5221 33.4764 18.4286H39Z" fill="black"/>
<path d="M33.4615 20.5714C33.4615 21.9916 32.2217 23.1429 30.6923 23.1429C29.1629 23.1429 27.9231 21.9916 27.9231 20.5714C27.9231 19.1513 29.1629 18 30.6923 18C32.2217 18 33.4615 19.1513 33.4615 20.5714Z" fill="black"/>
<path d="M32.5385 2.57143C32.5385 3.99159 31.2986 5.14286 29.7692 5.14286C28.2398 5.14286 27 3.99159 27 2.57143C27 1.15127 28.2398 0 29.7692 0C31.2986 0 32.5385 1.15127 32.5385 2.57143Z" fill="black"/>
<path d="M45.4615 11.1429C45.4615 12.563 44.2217 13.7143 42.6923 13.7143C41.1629 13.7143 39.9231 12.563 39.9231 11.1429C39.9231 9.7227 41.1629 8.57143 42.6923 8.57143C44.2217 8.57143 45.4615 9.7227 45.4615 11.1429Z" fill="black"/>
<path d="M51 11.1429C51 12.563 49.7602 13.7143 48.2308 13.7143C46.7014 13.7143 45.4615 12.563 45.4615 11.1429C45.4615 9.7227 46.7014 8.57143 48.2308 8.57143C49.7602 8.57143 51 9.7227 51 11.1429Z" fill="black"/>
<path d="M32.5385 11.1429C32.5385 12.563 31.2986 13.7143 29.7692 13.7143C28.2398 13.7143 27 12.563 27 11.1429C27 9.7227 28.2398 8.57143 29.7692 8.57143C31.2986 8.57143 32.5385 9.7227 32.5385 11.1429Z" fill="black"/>
<path d="M39 7.71429C39 9.13445 37.7602 10.2857 36.2308 10.2857C34.7014 10.2857 33.4615 9.13445 33.4615 7.71429C33.4615 6.29413 34.7014 5.14286 36.2308 5.14286C37.7602 5.14286 39 6.29413 39 7.71429Z" fill="black"/>
<path d="M42.6923 8.57143H48.2308V13.7143H42.6923V8.57143Z" fill="black"/>
<path d="M54 12.4706H59.3333V19.0588H54V12.4706Z" fill="black"/>
<path d="M59.3333 12.4706C59.3333 13.8351 58.1394 14.9412 56.6667 14.9412C55.1939 14.9412 54 13.8351 54 12.4706C54 11.1061 55.1939 10 56.6667 10C58.1394 10 59.3333 11.1061 59.3333 12.4706Z" fill="black"/>
<path d="M62 21.5294C62 22.8939 60.8061 24 59.3333 24C57.8606 24 56.6667 22.8939 56.6667 21.5294C56.6667 20.1649 57.8606 19.0588 59.3333 19.0588C60.8061 19.0588 62 20.1649 62 21.5294Z" fill="black"/>
<path d="M54 19.0588C54 19.7077 54.138 20.3502 54.406 20.9497C54.674 21.5492 55.0669 22.0939 55.5621 22.5528C56.0573 23.0116 56.6453 23.3756 57.2924 23.6239C57.9394 23.8722 58.633 24 59.3333 24V19.0588H54Z" fill="black"/>
<path d="M62 12.4706H67.3333V19.0588H62V12.4706Z" fill="black"/>
<path d="M67.3333 12.4706C67.3333 13.8351 66.1394 14.9412 64.6667 14.9412C63.1939 14.9412 62 13.8351 62 12.4706C62 11.1061 63.1939 10 64.6667 10C66.1394 10 67.3333 11.1061 67.3333 12.4706Z" fill="black"/>
<path d="M70 21.5294C70 22.8939 68.8061 24 67.3333 24C65.8606 24 64.6667 22.8939 64.6667 21.5294C64.6667 20.1649 65.8606 19.0588 67.3333 19.0588C68.8061 19.0588 70 20.1649 70 21.5294Z" fill="black"/>
<path d="M62 19.0588C62 19.7077 62.138 20.3502 62.406 20.9497C62.674 21.5492 63.0669 22.0939 63.5621 22.5528C64.0573 23.0116 64.6453 23.3756 65.2924 23.6239C65.9394 23.8722 66.6329 24 67.3333 24V19.0588H62Z" fill="black"/>
<path d="M70 12.4706H75.3333V19.0588H70V12.4706Z" fill="black"/>
<path d="M75.3333 12.4706C75.3333 13.8351 74.1394 14.9412 72.6667 14.9412C71.1939 14.9412 70 13.8351 70 12.4706C70 11.1061 71.1939 10 72.6667 10C74.1394 10 75.3333 11.1061 75.3333 12.4706Z" fill="black"/>
<path d="M78 21.5294C78 22.8939 76.8061 24 75.3333 24C73.8606 24 72.6667 22.8939 72.6667 21.5294C72.6667 20.1649 73.8606 19.0588 75.3333 19.0588C76.8061 19.0588 78 20.1649 78 21.5294Z" fill="black"/>
<path d="M70 19.0588C70 19.7077 70.138 20.3502 70.406 20.9497C70.674 21.5492 71.0669 22.0939 71.5621 22.5528C72.0573 23.0116 72.6453 23.3756 73.2924 23.6239C73.9394 23.8722 74.6329 24 75.3333 24V19.0588H70Z" fill="black"/>
</svg>
